{
 "cells": [
  {
   "cell_type": "markdown",
   "metadata": {},
   "source": [
    "# 11.1 Audio Extraction"
   ]
  },
  {
   "cell_type": "markdown",
   "metadata": {},
   "source": [
    "https://ffmpeg.org/\n",
    "\n",
    "먼저 위의 사이트에서 이 ffmpeg라는 도구를 다운받자. 이 도구는 우리의 콘솔에서 사용 가능하다. 이 ffmpeg는 비디오를 다루는 개발자에게 매우 유용한데, 예를들어 100개의 비디오의 모서리에 워터마크를 넣고 싶다고 할때, ffmpeg를 사용하면 일일히 비디오를 수정하지 않고 그냥 코드 한줄로 가능하다.\n",
    "\n",
    "```terminal\n",
    "ffmpeg -i files/Joe_Dispenza_podcast.mp4 -vn files/audio.mp3\n",
    "```\n",
    "\n",
    "위 명령어를 콘솔에 입력하고 실행하면 mp4파일을 영상을 무시하고(-vn) 음성만 추출하여 mp3파일로 변환한다는 뜻이다. 여기서 -i는 input을 의미한다.\n",
    "\n",
    "그렇다면 이 명령어를 우리의 코드에서 실행하려면 어떻게 해야 할까?? subprocess를 import해주면 된다. 이 subprocess는 파이썬 코드에서 명령어를 실행할 수 있게 해주는 역할을 한다."
   ]
  },
  {
   "cell_type": "code",
   "execution_count": 3,
   "metadata": {},
   "outputs": [
    {
     "name": "stderr",
     "output_type": "stream",
     "text": [
      "ffmpeg version 7.1.1 Copyright (c) 2000-2025 the FFmpeg developers\n",
      "  built with Apple clang version 16.0.0 (clang-1600.0.26.6)\n",
      "  configuration: --prefix=/opt/homebrew/Cellar/ffmpeg/7.1.1_1 --enable-shared --enable-pthreads --enable-version3 --cc=clang --host-cflags= --host-ldflags='-Wl,-ld_classic' --enable-ffplay --enable-gnutls --enable-gpl --enable-libaom --enable-libaribb24 --enable-libbluray --enable-libdav1d --enable-libharfbuzz --enable-libjxl --enable-libmp3lame --enable-libopus --enable-librav1e --enable-librist --enable-librubberband --enable-libsnappy --enable-libsrt --enable-libssh --enable-libsvtav1 --enable-libtesseract --enable-libtheora --enable-libvidstab --enable-libvmaf --enable-libvorbis --enable-libvpx --enable-libwebp --enable-libx264 --enable-libx265 --enable-libxml2 --enable-libxvid --enable-lzma --enable-libfontconfig --enable-libfreetype --enable-frei0r --enable-libass --enable-libopencore-amrnb --enable-libopencore-amrwb --enable-libopenjpeg --enable-libspeex --enable-libsoxr --enable-libzmq --enable-libzimg --disable-libjack --disable-indev=jack --enable-videotoolbox --enable-audiotoolbox --enable-neon\n",
      "  libavutil      59. 39.100 / 59. 39.100\n",
      "  libavcodec     61. 19.101 / 61. 19.101\n",
      "  libavformat    61.  7.100 / 61.  7.100\n",
      "  libavdevice    61.  3.100 / 61.  3.100\n",
      "  libavfilter    10.  4.100 / 10.  4.100\n",
      "  libswscale      8.  3.100 /  8.  3.100\n",
      "  libswresample   5.  3.100 /  5.  3.100\n",
      "  libpostproc    58.  3.100 / 58.  3.100\n",
      "Input #0, mov,mp4,m4a,3gp,3g2,mj2, from '../files/Joe_Dispenza_podcast.mp4':\n",
      "  Metadata:\n",
      "    major_brand     : isom\n",
      "    minor_version   : 512\n",
      "    compatible_brands: isomiso2avc1mp41\n",
      "    encoder         : Lavf58.45.100\n",
      "  Duration: 01:14:50.60, start: 0.000000, bitrate: 342 kb/s\n",
      "  Stream #0:0[0x1](und): Video: h264 (Main) (avc1 / 0x31637661), yuv420p(tv, bt709, progressive), 1280x720 [SAR 1:1 DAR 16:9], 205 kb/s, 29.97 fps, 29.97 tbr, 30k tbn (default)\n",
      "      Metadata:\n",
      "        handler_name    : ISO Media file produced by Google Inc.\n",
      "        vendor_id       : [0][0][0][0]\n",
      "  Stream #0:1[0x2](eng): Audio: aac (LC) (mp4a / 0x6134706D), 44100 Hz, stereo, fltp, 128 kb/s (default)\n",
      "      Metadata:\n",
      "        handler_name    : ISO Media file produced by Google Inc.\n",
      "        vendor_id       : [0][0][0][0]\n",
      "Stream mapping:\n",
      "  Stream #0:1 -> #0:0 (aac (native) -> mp3 (libmp3lame))\n",
      "Press [q] to stop, [?] for help\n",
      "Output #0, mp3, to '../files/audio.mp3':\n",
      "  Metadata:\n",
      "    major_brand     : isom\n",
      "    minor_version   : 512\n",
      "    compatible_brands: isomiso2avc1mp41\n",
      "    TSSE            : Lavf61.7.100\n",
      "  Stream #0:0(eng): Audio: mp3, 44100 Hz, stereo, fltp (default)\n",
      "      Metadata:\n",
      "        handler_name    : ISO Media file produced by Google Inc.\n",
      "        vendor_id       : [0][0][0][0]\n",
      "        encoder         : Lavc61.19.101 libmp3lame\n",
      "[out#0/mp3 @ 0x14c804400] video:0KiB audio:70166KiB subtitle:0KiB other streams:0KiB global headers:0KiB muxing overhead: 0.000494%\n",
      "size=   70166KiB time=01:14:50.59 bitrate= 128.0kbits/s speed= 153x    \n"
     ]
    }
   ],
   "source": [
    "import subprocess\n",
    "\n",
    "def extract_audio_from_video(video_path, audio_path):\n",
    "    command = [\"ffmpeg\", \"-i\", video_path, \"-vn\", audio_path,]\n",
    "    # 이렇게 배열로 형태로 전달하는 것은 보안때문이다. 또한 특수 문자가 포함되어 있을때도 더 편리하기 때문에\n",
    "    # 배열방식이 권장된다.\n",
    "    subprocess.run(command)\n",
    "\n",
    "extract_audio_from_video(\"../files/Joe_Dispenza_podcast.mp4\", \"../files/audio.mp3\")"
   ]
  }
 ],
 "metadata": {
  "kernelspec": {
   "display_name": "env",
   "language": "python",
   "name": "python3"
  },
  "language_info": {
   "codemirror_mode": {
    "name": "ipython",
    "version": 3
   },
   "file_extension": ".py",
   "mimetype": "text/x-python",
   "name": "python",
   "nbconvert_exporter": "python",
   "pygments_lexer": "ipython3",
   "version": "3.11.11"
  }
 },
 "nbformat": 4,
 "nbformat_minor": 2
}
